<?xml version="1.0" encoding="utf-8"?>
<!-- Generator: Adobe Illustrator 27.5.0, SVG Export Plug-In . SVG Version: 6.00 Build 0)  -->
<svg version="1.1" xmlns="http://www.w3.org/2000/svg" xmlns:xlink="http://www.w3.org/1999/xlink" x="0px" y="0px"
	 viewBox="0 0 750 500" style="enable-background:new 0 0 750 500;" xml:space="preserve">
<g id="BACKGROUND">
	<rect style="fill:#FFFFFF;" width="750" height="500"/>
	<rect style="fill:#B5CEC2;" width="750" height="500"/>
</g>
<g id="OBJECTS">
	<path style="fill:#8ABBBE;" d="M242.274,59.937c110.674,7.339,97.295,74.669,142.562,62.839s102.558-80.781,202.629-22.454
		s-9.844,140.673,39.89,164.144s51.452,110.225-61.928,164.196s-193.676-39.464-226.351-5.774s-291.464,62.865-235.026-88.18
		c40.102-107.324-25.059-84.008-11.985-159.715C107.065,88.139,198.991,57.067,242.274,59.937z"/>
	<g>
		<path style="fill:#FFFFFF;" d="M212.473,138.425c0,0,6.855-0.677,9.093,4.684c1.88,4.502-3.92,2.7-3.92,2.7
			s1.366-0.334,0.735,2.977c-0.631,3.311-14.08-4.204-15.954-3.056S207.354,139.891,212.473,138.425z"/>
		<path style="fill:#FFFFFF;" d="M177.268,155.709c0,0-6.036,3.675-4.683,10.544c1.353,6.869,8.012,10.159,13.425,6.534
			S183.304,154.428,177.268,155.709z"/>
		<path style="fill:#14244A;" d="M133.176,449.808c0,0-3.669,13.536,1.558,16.351c5.227,2.815,39.001,1.608,43.424,0
			c4.423-1.608-16.983-14.742-22.612-16.351C149.917,448.2,133.176,449.808,133.176,449.808z"/>
		<path style="fill:#EBC4B7;" d="M133.176,449.808c0,0,4.212-25.376,6.624-28.592c2.412-3.217,21.508,3.716,23.615,5.325
			c2.106,1.608-7.869,23.268-7.869,23.268H133.176z"/>
		<path style="fill:#14244A;" d="M216.419,433.787c0,0-9.859,9.975-6.695,14.998c3.163,5.023,33.153,20.605,37.794,21.383
			c4.641,0.778-7.521-21.194-11.629-25.366S216.419,433.787,216.419,433.787z"/>
		<path style="fill:#EBC4B7;" d="M216.419,433.787c0,0,10.714-19.038,14.398-20.65s16.372,7.415,17.414,9.852
			c1.041,2.437-12.342,21.813-12.342,21.813L216.419,433.787z"/>
		<path style="fill:#14244A;" d="M152.815,290.193c0,0,98.054-4.666,101.202,1.526c8.526,16.764,28.858,24.558,32.519,54.174
			c2.21,17.882-31.356,93.646-37.979,90.456c-6.623-3.19-33.726-10.171-35.183-19.497c-1.457-9.327,14.252-42.743,18.98-57.251
			s-24.744-43.324-24.744-43.324s-6.04,39.277-11.829,59.498c-7.697,26.885-15.156,63.299-23.055,64.742
			c-7.899,1.443-42.072-3.179-42.071-9.128c0.002-10.363,7.775-43.524,14.243-73.577S147.253,290.412,152.815,290.193z"/>
		<path style="fill:#14244A;" d="M86.557,228.482c0,0-13.853,47.9,41.204,52.627c51.106,4.388,42.377-75.973,68.781-70.797
			c26.403,5.176,2.825-30.051-40.417-32.527C107.371,174.994,86.889,217.861,86.557,228.482z"/>
		<path style="fill:#EBC4B7;" d="M180.179,151.492c0,0,6.072-13.413,22.821-13.06s32.096,39.888,6.977,42.837
			S178.142,163.982,180.179,151.492z"/>
		<path style="fill:#EBC4B7;" d="M187.694,170.58c0,0,10.786,23.627-4.32,28.039c-15.106,4.413-30.546-0.883-32.534,33.538h103.154
			c0,0,0.767-18.331-6.293-30.789s-40.609-1.867-39.721-9.81c0.888-7.943,0.421-32.289,0.421-32.289L187.694,170.58z"/>
		<path style="fill:#D4768D;" d="M206.184,155.085c0,0,6.498,8.749,5.266,10.765S202.889,167.092,206.184,155.085z"/>
		<path style="fill:#EBC4B7;" d="M186.966,170.237c0,0-3.122-5.126-7.09-0.547c-3.968,4.579,1.945,9.675,5.7,7.631
			S188.041,171.466,186.966,170.237z"/>
		<path style="fill:#D4768D;" d="M193.294,178.435c0,0,6.237,4.789,15.178,2.983c0,0,0.331,6.652-0.231,6.651
			C207.045,188.067,193.759,189.095,193.294,178.435z"/>
		<path style="fill:#EBC4B7;" d="M228.827,194.782c2.819,0.095,18.887-1.676,42.366-19.788
			c14.057-10.844-9.308-58.161,15.343-71.088c13.465-7.061,0,7.855,0,7.855s9.966-9.148,11.514-4.909c0.58,1.588-9,9.818-9,9.818
			s10.964-9,12.408-5.792c1.36,3.022-10.28,8.573-9.299,16.92c0.266,2.258,18.378,45.758-0.752,65.427
			c-21.659,22.27-52.085,26.68-52.085,26.68L228.827,194.782z"/>
		<path style="fill:#3F7497;" d="M188.333,195.714c0,0,12.475,17.326,20.313,13.431c8.947-4.446,1.294-14.621,2.959-14.616
			c4.281,0.015,29.214,1.139,37.692,10.136s4.72,87.054,4.72,87.054l-102.944,0.405c0,0,1.4-79.533,9.343-86.79
			C168.359,198.077,186.693,198.054,188.333,195.714z"/>
		<path style="fill:#3F7497;" d="M211.605,194.529c0,0,31.292-4.817,43.241-11.277c7.103-3.84,19.474,26.448,19.945,35.181
			c0.471,8.733-28.542,15.169-37.012,16.888C229.31,237.04,211.605,194.529,211.605,194.529z"/>
		<path style="fill:#FFFFFF;" d="M205.34,169.019c0.296-0.006,3.106,1.907,7.517-2.311c4.412-4.218,4.853,4.605-0.882,6.723
			C206.24,175.548,200.987,169.102,205.34,169.019z"/>
		<path style="fill:#14244A;" d="M160.416,204.289c0,0,21.041-6.332,30.402,3.205c9.36,9.537-2.581,46.801-1.345,54.042
			c1.236,7.241,26.315,9.184,30.907,0.706c4.592-8.477-11.603-30.218-11.733-43.551c-0.174-17.732-17.531-36.324-33.486-35.439
			C162.445,183.957,160.416,204.289,160.416,204.289z"/>
		<path style="fill:#EBC4B7;" d="M189.319,225.033c0,0,9.211-7.459,20.39-6.518c11.178,0.941-7.52,5.433-7.52,5.433
			s8.654-1.436,12.186,1.085c4.483,3.2-10.711,4.505-10.711,4.505s8.554,0.367,10.316,2.153c4.433,4.494-9.459-2.104-16.202,8
			c-4.836,7.246-8.14,5.219-13.221,2.374C179.477,239.22,182.724,228.917,189.319,225.033z"/>
		<path style="fill:#EBC4B7;" d="M197.26,240.437c0,0-28.805,52.175-61.653,43.705c-36.283-9.356-30.305-63.089,24.809-78.808
			l3.291,30.038c0,0-35.37,18.495-18.81,24.752c14.023,5.298,33.859-28.242,41.001-32.205L197.26,240.437z"/>
		<path style="fill:#3F7497;" d="M123.828,222.425c0,0,15.371,32.295,21.81,30.944s20.479-10.727,27.819-14.221
			s12.619-38.254,2.227-36.911C170.849,202.861,143.706,202.199,123.828,222.425z"/>
		<path style="fill:#14244A;" d="M205.34,137.791c0,0-0.209-13.665-19.914-10.135s-18.476,23.006-12.299,27.429
			S198.641,138.99,205.34,137.791z"/>
		<path style="fill:#FFFFFF;" d="M182.576,156.678c0,0,2.995,8.276,2.434,11.631c-0.561,3.355-9.622-2.31-9.32-7.478
			C175.993,155.663,182.576,156.678,182.576,156.678z"/>
		<path style="fill:#14244A;" d="M211.605,139.982c0,0-35.168,23.733-39.898,22.976c-4.731-0.757-4.731-8.652-2.602-10.545
			c3.248-2.888,33.484-23.653,39.368-20.814C214.357,134.436,212.962,139.075,211.605,139.982z"/>
		<path style="fill:#FFFFFF;" d="M239.427,448.223c0,0-10.003,3.837-6.85,5.297c1.397,0.647,8.332-1.777,8.55-3.506
			C241.345,448.285,240.129,447.978,239.427,448.223z"/>
		<path style="fill:#FFFFFF;" d="M244.023,454.673c0,0-10.003,3.837-6.85,5.297c1.397,0.647,8.332-1.777,8.55-3.506
			C245.94,454.735,244.724,454.427,244.023,454.673z"/>
		<path style="fill:#FFFFFF;" d="M161.173,451.332c0,0-6.954,8.15-3.486,7.926c1.537-0.099,6.47-5.542,5.835-7.165
			C162.888,450.47,161.672,450.781,161.173,451.332z"/>
		<path style="fill:#FFFFFF;" d="M168.291,454.802c0,0-6.954,8.15-3.486,7.926c1.537-0.099,6.47-5.542,5.835-7.165
			C170.006,453.94,168.79,454.251,168.291,454.802z"/>
		<path style="fill:#2C3557;" d="M261.65,302.437c0,0-18.114,13.436-11.115,28.948c6.998,15.513,16.879,17.159,11.115,36.096
			c-5.763,18.937-29.839,46.513-4.585,59.491c0,0,27.395-54.551,29.576-77.193C288.82,327.138,261.65,302.437,261.65,302.437z"/>
		<path style="fill:#2C3557;" d="M205.114,331.386c0,0-26.359,4.044-26.359,38.378c0,25.69-20.862,46.175,0.12,63.171
			C178.875,432.935,202.738,379.162,205.114,331.386z"/>
		<path style="fill:#2C3557;" d="M185.08,184.959c0,0-13.328,10.458-34.242,7.154c-37.037-5.851-30.96,40.826-64.282,36.369
			c0,0-0.018-24.902,34.258-43.588S185.08,184.959,185.08,184.959z"/>
		<path style="fill:#14244A;" d="M182.051,171.653c0,0,2.704-0.536,3.374,1.439S179.621,172.937,182.051,171.653z"/>
		<path style="fill:#DD98A0;" d="M190.444,168.752c0,0,1.075-3.852,5.462-2.697c3.936,1.036,3.336,7.361-1.054,7.537
			C190.462,173.768,189.548,170.584,190.444,168.752z"/>
		<path style="fill:#DD98A0;" d="M213.759,159.929c0,0,1.075-3.852,5.462-2.697c3.936,1.036,3.336,7.361-1.054,7.537
			C213.777,164.945,212.862,161.762,213.759,159.929z"/>
		<path style="fill:#14244A;" d="M184.143,160.814c0,0,32.304-20.236,35.593-14.452c3.289,5.784,0.944,13.356-6.941,11.727
			c-13.021-2.689-10.024,15.768-23.592,10.452C179.264,164.647,184.143,160.814,184.143,160.814z"/>
		<path style="fill:#FFFFFF;" d="M196.443,157.7c0,0,3.853,2.225,0.887,4.289C194.743,163.791,192.56,156.597,196.443,157.7z"/>
		<path style="fill:#FFFFFF;" d="M212.047,150.481c0,0,3.853,2.225,0.887,4.289C210.347,156.571,208.473,149.258,212.047,150.481z"
			/>
		<path style="fill:#2C3557;" d="M198.635,128.382c0,0-2.236,5.764-10.552,7.13c-8.317,1.367-10.269-3.405-17.519,2.577
			C170.564,138.089,177.033,119.893,198.635,128.382z"/>
		<path style="fill:#577B9A;" d="M254.847,183.252c0,0-3.008,13.956-12.948,16.63c-9.94,2.674-18.562,1.568-24.251-6.379
			C217.647,193.502,240.511,189.986,254.847,183.252z"/>
		<path style="fill:#577B9A;" d="M179.838,202.199c0,0-4.07,11.701-18.475,11.778c-14.405,0.078-18.681,7.013-29.793,1.795
			C131.57,215.773,153.928,198.465,179.838,202.199z"/>
	</g>
	<g>
		<g>
			<rect x="391.263" y="328.358" style="fill:#14244A;" width="5.923" height="101.549"/>
			<rect x="386.636" y="325.722" style="fill:#14244A;" width="15.179" height="67.4"/>
			<path style="fill:#14244A;" d="M354.513,334.518v7.686c0,7.571,6.137,13.708,13.708,13.708h52.008
				c7.571,0,13.708-6.137,13.708-13.708v-7.686c0-7.571-6.137-13.708-13.708-13.708h-52.008
				C360.65,320.81,354.513,326.947,354.513,334.518z"/>
			<circle style="fill:#14244A;" cx="348.197" cy="449.006" r="11.252"/>
			<circle style="fill:#14244A;" cx="393.524" cy="449.006" r="11.252"/>
			<circle style="fill:#14244A;" cx="440.253" cy="449.006" r="11.252"/>
			<path style="fill:#14244A;" d="M438.767,449.205c-0.1-0.727-2.666-17.799-23.39-17.799H371.02
				c0.039,0.001-5.473,0.375-10.866,2.816c-6.939,3.142-10.457,8.115-10.457,14.783h-3c0-18.878,23.988-20.582,24.23-20.597
				l44.45-0.003c23.402,0,26.336,20.199,26.363,20.403L438.767,449.205z"/>
			<rect x="392.024" y="429.907" style="fill:#14244A;" width="3" height="19.1"/>
		</g>
		<path style="fill:#EBC4B7;" d="M447.574,211.441c0,0,27.203,13.854,42.326,5.237c15.123-8.617-21.724-69.802-15.596-78.728
			c3.011-4.385,1.876,5.922,6.702,11.44c3.609,4.126,6.438-6.577,15.289-0.01s0.952,11.816,4.954,19.626
			c4.001,7.811,25.114,37.896,8.963,61.25c-16.151,23.353-52.451,12.318-60.141,13.047
			C442.382,244.032,447.574,211.441,447.574,211.441z"/>
		<path style="fill:#14244A;" d="M473.067,215.722c0,0,1.303,26.065-3.927,34.498c-5.231,8.433-22.978-2.393-33.801-0.538
			c-10.823,1.854-17.717-37.748-17.717-37.748C422.2,209.911,448.924,208.812,473.067,215.722z"/>
		<path style="fill:#EBC4B7;" d="M385.902,187.21c0,0,10.786,23.627-4.32,28.039c-15.106,4.413-30.546-0.883-32.534,33.538h103.154
			c0,0-0.257-11.238-7.318-23.696c-7.061-12.458-39.584-8.959-38.697-16.903c0.888-7.943,0.421-32.289,0.421-32.289L385.902,187.21z
			"/>
		<path style="fill:#14244A;" d="M420.848,449.808c0,0-3.669,13.536,1.558,16.351c5.227,2.815,39.001,1.608,43.424,0
			c4.423-1.608-16.983-14.742-22.612-16.351C437.589,448.2,420.848,449.808,420.848,449.808z"/>
		<path style="fill:#EBC4B7;" d="M420.848,449.808c0,0-0.05-21.846,2.362-25.063c2.412-3.217,17.901-1.608,20.008,0
			c2.106,1.608,0,25.063,0,25.063H420.848z"/>
		<path style="fill:#14244A;" d="M473.168,449.808c0,0-3.669,13.536,1.558,16.351c5.227,2.815,39.001,1.608,43.424,0
			c4.423-1.608-16.983-14.742-22.612-16.351C489.909,448.2,473.168,449.808,473.168,449.808z"/>
		<path style="fill:#EBC4B7;" d="M473.168,449.808c0,0-0.05-21.846,2.362-25.063c2.412-3.217,17.901-1.608,20.008,0
			s0,25.063,0,25.063H473.168z"/>
		<path style="fill:#EBC4B7;" d="M380.808,161.741c0,0,13.544-10.396,29.159-4.326s12.662,44.732-11.947,38.897
			C373.411,190.477,374.615,172.777,380.808,161.741z"/>
		<path style="fill:#14244A;" d="M384.294,158.871c0,0,2.52-15.376,16.426-11.623c14.176,3.825,16.647-2.152,18.59-0.147
			c4.561,4.708-5.885,10.887-5.885,10.887s5.893-5.675,9.276-2.585c3.384,3.09-1.332,10.972-8.601,8.703
			c-4.146-1.294-21.421-3.911-26.57-0.674s-3.528,15.07-7.356,16.72C376.346,181.803,360.606,163.285,384.294,158.871z"/>
		<path style="fill:#EBC4B7;" d="M381.244,182.323c0,0-1.167-7.329-6.955-3.589c-5.089,3.288-1.487,9.755,2.741,9.122
			C381.259,187.222,381.832,183.846,381.244,182.323z"/>
		<path style="fill:#CA4776;" d="M391.503,195.064c0,0,6.341,4.415,14.352,1.545c0,0,0.526,7.429-0.587,7.871
			C404.156,204.922,391.967,205.725,391.503,195.064z"/>
		<path style="fill:#3F7497;" d="M359.449,323.985c0,0-7.155,21.435,35.34,28.058c23.628,3.682,10.261,86.023,21.184,87.492
			c10.923,1.469,26.984,4.233,33.774-1.611c6.79-5.844,7.166-81.833,1.758-95.576c-5.409-13.743-33.031,0-33.031,0
			c2.929-2.713,49.008,11.163,48.013,39.813c-0.74,21.304-0.161,49.669,17.702,55.763c0,0,19.883,1.115,24.271-3.51
			s2.531-67.564,0-78.502c-6.125-26.471-64.305-42.357-64.305-42.357C432.919,312.323,352.932,314.454,359.449,323.985z"/>
		<path style="fill:#14244A;" d="M383.784,214.38c0,0,10.812,10.63,19.504,12.306c8.692,1.676,8.266-14.717,11.398-14.643
			s24.719-2.609,34.417,9.435c7.282,9.044,15.843,99.331,15.843,99.331H357.182c0,0-7.756-93.213,0.019-97.617
			C364.976,218.789,365.861,216.168,383.784,214.38z"/>
		<polygon style="fill:#FFFFFF;" points="438.284,247.415 530.723,247.415 529.722,309.559 438.022,309.559 		"/>
		<polygon style="fill:#FFFFFF;" points="438.022,309.559 417.622,309.559 417.622,296.927 438.07,296.927 		"/>
		<path style="fill:#FFFFFF;" d="M375.791,52.368c0,0,13.763-23.81,31.893-1.878c0,0,11.798-8.144,23.305,1.879
			s2.736,21.927,2.736,21.927s8.689,0.626,10.923,13.783c2.233,13.156-12.188,17.913-12.188,17.913s4.932,21.404-14.146,28.175
			c-23.148,8.214-30.071-2.157-30.071-2.157s-6.823,8.729-24.447,5.27c-25.058-4.918-16.882-27.453-16.882-27.453
			s-18.746-0.261-17.253-18.585c1.297-15.922,14.748-17.77,14.748-17.77s-2.792-16.717,8.806-22.355S375.791,52.368,375.791,52.368z
			"/>
		<path style="fill:#FFFFFF;" d="M456.595,111.686c0,0,2.72-4.597,7.634-0.317c4.914,4.28-0.552,7.583-0.552,7.583
			s4.039,0.501,4.515,4.424c0.674,5.563-7.292,5.292-7.292,5.292s1.427,5.052-6.024,4.893c-7.45-0.159-4.597-7.133-4.597-7.133
			s-4.278,2.705-6.489-2.061c-2.211-4.766,4.139-5.272,4.139-5.272s-1.248-0.044-1.614-4.556
			C445.841,108.674,455.644,109.308,456.595,111.686z"/>
		<path style="fill:#FFFFFF;" d="M459.648,160.326c0,0,2.45,2.937-1.616,5.227c-4.066,2.29-4.985-2.191-4.985-2.191
			s-1.307,2.606-4.068,1.986c-3.916-0.879-1.823-6.189-1.823-6.189s-3.751-0.249-1.858-5.238c1.893-4.989,5.916-1.392,5.916-1.392
			s-0.8-3.536,2.946-3.884s2.565,4.057,2.565,4.057s0.329-0.831,3.462,0.004C464.259,153.791,461.48,160.255,459.648,160.326z"/>
		<path style="fill:#14244A;" d="M393.921,175.062c-3.532-0.727-4.883,4.571-3.428,5.09c1.454,0.519,0.337-3.235,2.819-3.117
			c2.168,0.104,0.817,3.428,1.96,3.22C396.415,180.048,397.453,175.789,393.921,175.062z"/>
		<path style="fill:#14244A;" d="M412.895,175.949c-3.532-0.727-4.883,4.571-3.428,5.09c1.454,0.519,0.337-3.235,2.819-3.117
			c2.168,0.104,0.817,3.428,1.96,3.22C415.389,180.936,416.427,176.677,412.895,175.949z"/>
		<g>
			<path style="fill:#F3D89C;" d="M399.405,117.941c0,0-18.304,0.795-21.979-0.636c-3.675-1.43,0.057-11.822-2.793-13.117
				c-11.245-5.113-23.301-28.172-2.418-40.879c15.867-9.655,41.148-2.861,42.811,16.091c1.851,21.098-15.622,21.455-15.622,25.389
				C399.405,110.583,399.405,117.941,399.405,117.941z"/>
			<path style="fill:#14244A;" d="M375.8,108.436c0,0,23.604-1.947,23.604,0.001c0,1.947,1.581,12.923,0,14.34
				c-1.581,1.416-23.716,0.531-24.07,0S374.689,109.321,375.8,108.436z"/>
			<path style="fill:#14244A;" d="M393.398,118.882c0,0,1.947,9.206,0,10.091s-7.966,0.531-10.091,0s-1.416-8.498-1.062-9.206
				C382.599,119.059,393.398,118.882,393.398,118.882z"/>
			<path style="fill:#FFFFFF;" d="M395.522,65.418c0,0,4.603-1.593,9.914,4.78c5.311,6.373,6.727,13.1,1.062,10.622
				c-5.665-2.478-6.196-7.789-10.976-9.206C390.743,70.198,390.92,65.949,395.522,65.418z"/>
			<path style="fill:#14244A;" d="M395.663,111.346l-0.988-0.153c0.035-0.226,3.467-22.669,0.104-26.874
				c-1.18-1.474-2.775-1.715-4.274-0.638c-0.279,0.201-0.54,0.438-0.776,0.706c1.611,1.958,2.236,4.991,1.924,6.827
				c-0.195,1.146-0.707,1.482-1.102,1.563c-0.691,0.137-1.396-0.383-2.175-1.595c-1.457-2.268-1.143-4.867,0.05-6.718
				c-0.197-0.175-0.406-0.331-0.629-0.463c-1.401-0.839-2.8-0.332-3.841,0.574c0.291,0.368,0.555,0.8,0.787,1.294
				c1.132,2.412,1.378,6.176-0.015,7.232c-0.362,0.274-1.141,0.588-2.278-0.394c-2.339-2.021-1.871-5.421-0.199-7.735
				c0.1-0.137,0.203-0.271,0.313-0.4c-0.523-0.405-1.172-0.616-1.975-0.431c-3.544,0.827-2.624,17.037-1.211,27.061l-0.99,0.14
				c-0.01-0.066-0.936-6.697-1.199-13.394c-0.369-9.361,0.669-14.195,3.174-14.78c1.061-0.246,2.056,0.002,2.897,0.692
				c1.383-1.217,3.251-1.791,5.051-0.716c0.255,0.153,0.496,0.33,0.723,0.526c0.271-0.301,0.569-0.57,0.889-0.799
				c1.919-1.378,4.133-1.057,5.639,0.825C399.195,88.239,395.808,110.405,395.663,111.346z M383.256,85.3
				c-0.068,0.084-0.134,0.17-0.196,0.256c-1.37,1.897-1.821,4.783,0.043,6.393c0.316,0.274,0.751,0.558,1.021,0.354
				c0.704-0.534,0.861-3.564-0.287-6.01C383.68,85.959,383.488,85.615,383.256,85.3z M389.123,85.227
				c-0.887,1.532-1.073,3.598,0.094,5.413c0.744,1.158,1.143,1.157,1.133,1.156c0.038-0.008,0.216-0.166,0.315-0.75
				C390.925,89.517,390.414,86.939,389.123,85.227z"/>
			<path style="fill:#FFFFFF;" d="M400.063,113.184c-12.735-0.697-24.729-0.006-24.849,0l-0.059-0.998
				c0.12-0.007,12.17-0.703,24.962,0L400.063,113.184z"/>
			<path style="fill:#FFFFFF;" d="M375.224,118.439l-0.079-0.997c5.121-0.406,24.146-0.092,24.954-0.079l-0.018,1
				C399.885,118.361,380.297,118.037,375.224,118.439z"/>
		</g>
		<path style="fill:#FFFFFF;" d="M498.874,451.174c0,0-8.123,6.985-4.662,7.297c1.534,0.138,7.244-4.483,6.866-6.184
			C500.7,450.585,499.451,450.706,498.874,451.174z"/>
		<path style="fill:#FFFFFF;" d="M506.238,454.359c0,0-8.123,6.985-4.662,7.297c1.534,0.138,7.244-4.483,6.866-6.184
			C508.064,453.77,506.815,453.891,506.238,454.359z"/>
		<path style="fill:#FFFFFF;" d="M448.532,451.174c0,0-8.123,6.985-4.662,7.297c1.534,0.138,7.244-4.483,6.866-6.184
			C450.359,450.585,449.11,450.706,448.532,451.174z"/>
		<path style="fill:#FFFFFF;" d="M455.896,454.359c0,0-8.123,6.985-4.662,7.297c1.534,0.138,7.244-4.483,6.866-6.184
			C457.723,453.77,456.473,453.891,455.896,454.359z"/>
		<path style="fill:#577B9A;" d="M409.667,388.368c0,0,45.431-14.174,45.456-11.005c0.024,3.169,2.519,63.521-4.367,63.42
			c-6.887-0.101-39.187,3.362-41.088,0C407.765,437.42,409.667,388.368,409.667,388.368z"/>
		<path style="fill:#577B9A;" d="M466.487,382.16c0,0,43.531-14.784,43.555-11.615c0.024,3.169,5.819,68.866-1.068,68.765
			s-39.187,3.362-41.088,0C465.985,435.948,466.487,382.16,466.487,382.16z"/>
		<path style="fill:#D4768D;" d="M407.852,211.084c0,0-5.975,6.804-20.016-0.457c0,0,1.659-1.499,1.727-5.928l15.704-0.218
			C405.268,204.48,405.975,209.339,407.852,211.084z"/>
		<path style="fill:#2C3557;" d="M465.846,213.901c0,0,2.921,8.075-13.645,7.497c-16.566-0.578-32.765,0.695-34.579-9.465
			C417.622,211.934,435.065,206.747,465.846,213.901z"/>
		<path style="fill:#14244A;" d="M376.252,182.207c0,0,2.666,0.701,2.404,2.771C378.395,187.047,373.505,182.297,376.252,182.207z"
			/>
		<path style="fill:#DD98A0;" d="M386.77,184.532c0,0,1.075-3.852,5.462-2.697c3.936,1.036,3.336,7.361-1.054,7.537
			S385.873,186.365,386.77,184.532z"/>
		<path style="fill:#DD98A0;" d="M409.201,186.062c0,0,1.075-3.852,5.462-2.697c3.936,1.036,3.336,7.361-1.054,7.537
			C409.22,191.078,408.305,187.895,409.201,186.062z"/>
		<path style="fill:#14244A;" d="M387.53,163.432c0,0-7.859,22.415,2.386,24.865c4.525,1.082,4.357-4.85,13.371-4.475
			c9.099,0.379,6.373,6.907,9.587,5.985c3.214-0.922,5.158-7.279,5.837-6.503c1.634,1.87,1.339,6.5-2,11.759
			c-4.283,6.747,3.269,4.88-4.982,12.023c-9.415,8.151-24.4,0.367-23.215-4.8c1.403-6.12-7.076-1.68-8.022-9.738
			c-0.94-8.006,2.263-14.55-2.115-16.338C373.999,174.424,387.53,163.432,387.53,163.432z"/>
		<path style="fill:#D4768D;" d="M404.008,174.025c0,0,4.503,10.35,1.259,11.917C403.141,186.97,397.016,186.142,404.008,174.025z"
			/>
		<path style="fill:#FFFFFF;" d="M398.255,189.322c0.257,0.09,4.236,2.716,7.233,0.42c4.463-3.419,2.709,5.535-2.922,5.52
			C396.934,195.248,394.47,187.995,398.255,189.322z"/>
		<g>
			<rect x="309.527" y="305.562" style="fill:#FFFFFF;" width="274.664" height="21.198"/>
			<rect x="560.45" y="305.603" style="fill:#FFFFFF;" width="26.463" height="157.683"/>
			<rect x="304.503" y="305.358" style="fill:#FFFFFF;" width="26.463" height="157.929"/>
		</g>
		<path style="fill:#EBC4B7;" d="M341.058,232.157c0,0-30.757,52.793-13.001,69.004c16.573,15.13,49.447,6.469,76.067-12.126
			c10.142-7.084,20.221-1.894,22.097-1.79c12.714,0.703-5.996-8.795-5.996-8.795s15.704,3.604,15.259,1.369
			c-0.639-3.217-11.287-6.927-11.287-6.927s11.958,2.281,12.789,0.909c1.321-2.181-7.919-10.455-25.133-7.293
			c-14.165,2.603-32.601,10.336-51.951,16.109c-12.895,3.848,11.568-31.068,8.729-32.617S341.058,232.157,341.058,232.157z"/>
		<path style="fill:#14244A;" d="M326.337,258.555c0,0,34.996,18.108,41.036,15.194s14.834-22.981,18.637-26.509
			c3.803-3.528-1.082-32.631-4.428-31.991S339.837,213.997,326.337,258.555z"/>
		<path style="fill:#2C3557;" d="M377.505,215.239c0,0-0.469,7.31-12.007,14.23s-19.462,28.264-37.441,24.008
			C328.058,253.476,337.388,218.963,377.505,215.239z"/>
	</g>
	<g>
		<path style="fill:#3F7497;" d="M622.075,354.96c0,0-8.132-22.097,11.795-49.687c10.436-14.449,40.149-28.184,49.588-22.058
			c9.439,6.126-10.466,8.64-16.879,31.767C660.166,338.11,626.1,364.155,622.075,354.96z"/>
		<path style="fill:#3F7497;" d="M610.73,387.827c0,0,1.402-35.705-28.615-51.996c-25.569-13.876-59.509-5.134-56.758,0
			c6.963,12.994,30.542,7.824,42.576,20.837C579.966,369.681,605.12,404.037,610.73,387.827z"/>
		<path style="fill:#3F7497;" d="M615.626,360.919c0,0,14.823-38.821-7.596-79.882c-12.503-22.898-53.479-44.927-53.611-31.837
			c-0.132,13.09,20.869,25.889,26.518,48.45C586.586,320.21,614.394,374.472,615.626,360.919z"/>
		<path style="fill:#14244A;" d="M618.052,407.192l-1.24-0.048c0.837-26.659,5.364-63.565,22.18-87.995
			c10.121-14.706,19.779-17.859,20.184-17.987l0.34,1.313C659.13,302.597,620.922,315.711,618.052,407.192z"/>
		<path style="fill:#3F7497;" d="M627.847,383.686c0,0-1.785-21.318,22.332-40.67c12.63-10.134,41.973-14.988,48.761-7.342
			c6.788,7.646-11.254,5.039-22.457,23.747C665.28,378.128,629.151,392.711,627.847,383.686z"/>
		<path style="fill:#14244A;" d="M614.93,416.773l-1.075-0.338c6.582-21.008,18.645-49.277,38.733-64.653
			c12.091-9.256,21.242-9.432,21.625-9.436l0.01,1.127C673.859,343.478,637.517,344.683,614.93,416.773z"/>
		<path style="fill:#14244A;" d="M616.219,407.621l-1.24-0.013c1.137-121.888-33.896-137.082-34.25-137.222l0.417-1.285
			c0.375,0.148,9.287,3.832,18.108,22.849C613.874,323.472,616.549,372.251,616.219,407.621z"/>
		<path style="fill:#14244A;" d="M615.002,417.651c-1.91-54.765-34.394-64.838-34.722-64.933l0.345-1.191
			c0.337,0.097,33.672,10.365,35.617,66.081L615.002,417.651z"/>
		<path style="fill:#14244A;" d="M589.032,399.973c0,0,54.248-3.014,56.056,0c1.808,3.014-3.999,6.509-5.425,10.548
			c-5.425,15.37,16.274,33.151-1.499,59.673h-42.803c0,0-8.137-16.727-6.329-28.707c1.808-11.979,9.845-27.427,6.329-30.966
			C589.936,405.06,586.018,402.384,589.032,399.973z"/>
	</g>
</g>
</svg>
